<?xml version="1.0"?>
<svg xmlns="http://www.w3.org/2000/svg" xmlns:xlink="http://www.w3.org/1999/xlink" xmlns:svgjs="http://svgjs.com/svgjs" version="1.1" width="512" height="512" x="0" y="0" viewBox="0 0 512 512" style="enable-background:new 0 0 512 512" xml:space="preserve"><g><path xmlns="http://www.w3.org/2000/svg" d="m181 255h88v-120h-88z" fill="#316b83" data-original="#000000" style=""/><path xmlns="http://www.w3.org/2000/svg" d="m207.5 76.025c-72.483 0-131.452 58.941-131.452 131.389s58.967 131.386 131.452 131.386 131.45-58.938 131.45-131.386-58.969-131.389-131.45-131.389zm73.5 184.49a6.783 6.783 0 0 1 -6.4 6.485h-2.6v26.164a5.955 5.955 0 0 1 -6.108 5.836h-109.079a22.384 22.384 0 0 1 -22.447-22.242c0-.142-.12-.2-.117-.343 0-.082-.249-.164-.249-.247v-131.158c0-12.31 10.5-22.01 22.812-22.01h117.788c3.313 0 6.4 2.372 6.4 5.685z" fill="#316b83" data-original="#000000" style=""/><path xmlns="http://www.w3.org/2000/svg" d="m169 255v-120h-12.188c-5.693 0-10.812 4.317-10.812 10.01v112.04a26.482 26.482 0 0 1 10.813-2.05z" fill="#316b83" data-original="#000000" style=""/><path xmlns="http://www.w3.org/2000/svg" d="m146.488 277a10.064 10.064 0 0 0 10.325 10h103.187v-20h-103.187a10.064 10.064 0 0 0 -10.325 10z" fill="#316b83" data-original="#000000" style=""/><path xmlns="http://www.w3.org/2000/svg" d="m386.026 207.414c0-98.394-80.088-178.444-178.528-178.444s-178.528 80.05-178.528 178.444 80.087 178.444 178.53 178.444 178.526-80.049 178.526-178.444zm-178.526 143.386c-79.1 0-143.452-64.324-143.452-143.389s64.352-143.386 143.452-143.386 143.45 64.324 143.45 143.389-64.35 143.386-143.45 143.386z" fill="#316b83" data-original="#000000" style=""/><path xmlns="http://www.w3.org/2000/svg" d="m385.486 348.5-37.044 37.028 89.878 89.839a26.23 26.23 0 0 0 37.049-.033c.364-.358.691-.7 1.006-1.045a26.153 26.153 0 0 0 -.974-35.908z" fill="#316b83" data-original="#000000" style=""/><path xmlns="http://www.w3.org/2000/svg" d="m368.24 348.772-16.766-16.756a192.337 192.337 0 0 1 -19.313 19.306l16.766 16.756z" fill="#316b83" data-original="#000000" style=""/></g></svg>
